<?xml version="1.0" encoding="UTF-8"?>
<svg id="Layer_1" xmlns="http://www.w3.org/2000/svg" version="1.1" viewBox="0 0 522.7 466.2">
  <!-- Generator: Adobe Illustrator 29.2.1, SVG Export Plug-In . SVG Version: 2.1.0 Build 116)  -->
  <defs>
    <style>
      .st0 {
        fill: #e09b2d;
      }

      .st1 {
        stroke-width: 22.7px;
      }

      .st1, .st2 {
        fill: none;
        stroke: #61dafb;
      }

      .st3 {
        fill: #90bc42;
      }

      .st2 {
        stroke-miterlimit: 4;
        stroke-width: 22.7px;
      }

      .st4 {
        fill: #fff;
      }

      .st5 {
        fill: #9ad14b;
      }

      .st6 {
        fill: #f7b239;
      }

      .st7 {
        fill: #333;
      }
    </style>
  </defs>
  <g>
    <ellipse class="st1" cx="261.4" cy="233.1" rx="250" ry="95.5"/>
    <ellipse class="st2" cx="261.4" cy="233.1" rx="95.5" ry="250" transform="translate(-81.5 161.9) rotate(-30)"/>
    <ellipse class="st2" cx="261.4" cy="233.1" rx="250" ry="95.5" transform="translate(-71.2 342.9) rotate(-60)"/>
  </g>
  <g>
    <path class="st3" d="M261.4,198.6s-14.2-.3-26.1,4.9c5.9-32-20.6-77.4-21-78,16.5,7.1,27.3,19.2,34.3,31.5,11.6,20.5,12.8,41.6,12.8,41.6Z"/>
    <path class="st5" d="M308.4,125.4c-.4.6-26.9,46-21,78-11.9-5.2-26.1-4.9-26.1-4.9,0,0,1.2-21.1,12.8-41.6,7-12.3,17.7-24.4,34.3-31.5Z"/>
    <path class="st5" d="M274.2,156.9c-11.6,20.5-12.8,41.6-12.8,41.6,0,0-1.2-21.1-12.8-41.6,0,0-1.2-42.5,12.8-71.6,14,29.1,12.8,71.6,12.8,71.6Z"/>
    <path class="st6" d="M261.4,198.6s14.2-.3,26.1,4.9c8.6,3.8,16,10.4,16,22.2s-2.4,27.7-6.6,48.1c-7.5,36.7-20.7,82.1-35.5,107.2-9.6-16.2-18.4-40.8-25.5-66.1-7.2-25.8-12.7-52.2-15.1-71.1-.9-7.3-1.4-13.5-1.4-18,0-11.7,7.4-18.4,16-22.2,11.9-5.2,26.1-4.9,26.1-4.9Z"/>
    <path class="st0" d="M253.3,314.8c2.2,25.3,5,49.9,8.1,66.1-9.6-16.2-18.4-40.8-25.5-66.1-7.2-25.8-12.7-52.2-15.1-71.1-.9-7.3-1.4-13.5-1.4-18,0-11.7,7.4-18.4,16-22.2,10.9-4.8,23.8-4.9,25.8-4.9-1,0-4.8.4-8,4.9-2.7,3.8-5,10.4-5,22.2s.2,10.7.5,18c.8,18.9,2.5,45.3,4.8,71.1Z"/>
    <polygon class="st3" points="261.4 91 261.4 180.5 248.7 149.8 252 109.7 261.4 91"/>
    <path class="st4" d="M272.2,315.3c-.4,0-.9,0-1.4-.2-2.7-.7-4.2-3.5-3.5-6.2,1.6-5.8,3.2-11.8,4.7-17.9.7-2.7,3.4-4.3,6.1-3.7,2.7.7,4.3,3.4,3.7,6.1-1.5,6.1-3.1,12.3-4.8,18.2-.6,2.2-2.6,3.7-4.8,3.7Z"/>
    <path class="st4" d="M283.9,264.7c-.3,0-.6,0-.9,0-2.7-.5-4.5-3.1-4-5.8,1.6-8.8,2.8-17,3.5-23.5.3-2.8,2.7-4.8,5.5-4.5,2.8.3,4.8,2.7,4.5,5.5-.7,6.8-1.9,15.1-3.6,24.2-.4,2.4-2.5,4.1-4.9,4.1Z"/>
    <circle class="st4" cx="287.5" cy="222.1" r="5"/>
    <path class="st7" d="M312.8,128c1.1-1.9.9-4.2-.6-5.9s-3.8-2.1-5.7-1.3c-10.7,4.6-20,11.6-27.6,20.7-.9-15.4-3.8-39.4-13-58.3-.8-1.7-2.6-2.8-4.5-2.8s-3.7,1.1-4.5,2.8c-9.1,18.9-12.1,42.9-13,58.3-7.6-9.1-16.9-16.1-27.6-20.7-2-.9-4.3-.3-5.7,1.3-1.4,1.6-1.7,4-.6,5.9.3.4,24.5,42.3,20.8,72.1-3,1.6-5.9,3.5-8.4,5.9-5.4,5.2-8.1,11.8-8.1,19.6,0,28.8,19.4,118.1,42.8,157.8.9,1.5,2.5,2.5,4.3,2.5s3.4-.9,4.3-2.5c23.4-39.7,42.8-129,42.8-157.8s-2.7-14.4-8.1-19.6c-2.5-2.4-5.3-4.3-8.4-5.9-3.8-29.8,20.5-71.7,20.8-72.1ZM261.4,98.9c7.6,23.4,7.9,50.8,7.8,56.7-2,3.7-3.9,7.6-5.5,11.7-.9,2.3-1.7,4.5-2.4,6.6-.7-2.1-1.5-4.3-2.4-6.6-1.6-4.1-3.4-8-5.5-11.7,0-6,.2-33.3,7.8-56.7ZM226.6,138.5c9.9,7.8,17.5,18.5,23,32.2,3.7,9.3,5.4,17.9,6.2,23-3.8.3-9.1.9-14.7,2.4.8-20.2-7.7-42.9-14.5-57.6ZM298.4,225.6c0,9.3-2.1,25-5.7,43.1h-21.4c-2.8,0-5,2.2-5,5s2.2,5,5,5h19.3c-1.4,6.3-2.9,12.7-4.5,19.2-7.5,29.9-16.2,55.1-24.8,72.5-6.4-12.9-12.9-30.2-18.9-50.6h13.9c2.8,0,5-2.2,5-5s-2.2-5-5-5h-16.7c-1.1-3.9-2.1-7.8-3.1-11.9-4.4-17.5-7.9-35-10.1-49.2h11.8c2.8,0,5-2.2,5-5s-2.2-5-5-5h-13.2c-.6-5.1-.9-9.5-.9-13,0-5.1,1.7-9.1,5-12.5,5.2-5,13.4-7.4,19.4-8.5,5.8-1,10.8-1.1,12.1-1.1s.4,0,.4,0c0,0,.2,0,.2,0,6-.1,23.4,1.3,31.9,9.6,3.4,3.3,5.1,7.4,5.1,12.5ZM267,193.7c.8-5.2,2.5-13.7,6.2-23,5.4-13.6,13.1-24.4,23-32.2-6.8,14.7-15.2,37.5-14.5,57.6-5.6-1.5-10.9-2.1-14.7-2.4Z"/>
  </g>
</svg>